<svg width="1000" height="1000" viewBox="0 0 1000 1000" fill="none" xmlns="http://www.w3.org/2000/svg">
<path d="M500.013 236.852C354.91 236.852 236.861 354.9 236.861 500.003C236.861 645.106 354.91 763.154 500.013 763.154C645.115 763.154 763.164 645.106 763.164 500.003C763.164 354.9 645.115 236.852 500.013 236.852Z" fill="black"/>
<path d="M636.841 305.708C648.959 325.591 659.355 346.759 663.426 370.055C606.625 345.099 542.309 338.712 480.56 341.561C452.629 342.845 417.81 346.039 393.48 359.033C456.324 340.935 528.625 340.684 592.847 352.614C583.86 356.341 571.555 351.143 561.691 354.462C516.131 349.577 459.424 349.42 414.584 359.065C406.287 360.85 395.296 364.638 388 368.271C386.09 368.177 382.176 336.05 382.051 332.887C381.831 327.345 382.27 303.829 383.898 299.79C386.873 292.431 421.442 282.13 429.74 280.032L431.587 282.787C419.657 285.605 406.036 288.737 396.298 296.565C473.139 267.006 562.662 270.92 636.904 305.771L636.841 305.708Z" fill="#EEDABC"/>
<path d="M381.138 370.962L375.627 371.87C371.462 341.873 371.212 315.288 380.198 286.387C380.292 286.136 382.985 282.316 381.576 281.784C379.572 281.502 379.697 284.696 379.29 285.447C365.325 309.996 369.27 361.474 374.719 388.873C377.944 404.999 397.076 452.187 395.792 463.334C394.226 476.987 353.927 540.676 343.531 553.89C343.187 554.329 342.06 555.268 341.684 555.738C312.532 506.483 282.378 452.375 287.607 392.568C290.112 363.76 321.08 329.348 342.154 310.309C351.328 302.012 364.605 295.342 371.024 285.479C375.94 282.66 382.015 278.872 387.526 277.65C371.18 305.425 376.096 340.557 381.106 370.962H381.138Z" fill="#DBB070"/>
<path d="M512.191 499.66C503.361 514.439 497.474 530.972 489.27 546.096C483.133 557.369 473.144 575.468 464.533 584.235C435.037 614.233 376.138 630.453 344.449 596.197C371.315 567.64 400.436 528.342 420.539 494.619C422.011 492.145 425.455 486.039 425.111 483.127C425.204 483.064 425.768 481.53 426.488 481.279C429.275 480.403 468.071 487.354 474.146 488.638C480.221 489.922 506.523 495.026 509.905 496.904C510.563 497.28 511.972 498.846 512.191 499.66Z" fill="#2983A6"/>
<path d="M712.946 543.778C713.885 544.592 714.856 545.187 715.701 546.063C718.676 559.684 680.913 634.021 671.707 649.019C653.608 678.516 629.216 706.697 600.22 725.767C586.568 728.459 573.949 735.442 560.359 738.636C550.715 740.891 537.313 742.895 527.356 744.147C518.995 745.212 506.909 744.241 498.955 745.995C496.576 746.527 496.45 747.529 496.67 749.658C489.28 749.47 481.013 748.938 473.749 747.811C473.561 744.648 476.567 744.93 478.32 744.147C488.716 744.992 503.715 734.002 512.702 727.614C528.201 716.592 545.486 699.652 558.074 685.342C591.735 684.653 628.59 662.797 652.951 640.314C681.414 614.012 698.385 579.568 712.069 543.809C712.288 543.965 712.821 543.652 712.977 543.809L712.946 543.778Z" fill="black"/>
<path d="M354.574 695.453C349.157 697.019 300.247 645.791 295.926 636.617C299.495 632.953 312.929 626.377 318.377 621.9C327.52 614.416 336.382 604.803 344.492 596.161C376.18 630.448 435.048 614.228 464.576 584.199C436.895 628.788 397.754 665.956 354.574 695.422V695.453Z" fill="#103240"/>
<path d="M280.299 425.198L278.452 427.954C277.512 415.804 278.264 404.563 278.546 392.383C276.51 391.788 275.853 393.353 275.696 394.418C267.273 452.472 295.83 518.228 326.11 565.855C327.018 567.295 328.302 568.673 328.865 569.518C328.677 570.301 322.008 577.221 321.068 577.785C298.962 590.748 273.285 566.011 261.95 548.382C259.414 544.437 257.66 538.237 253.715 535.513C245.918 480.622 258.067 413.644 284.245 378.824C279.579 395.796 279.078 408.728 280.299 425.198Z" fill="#EEDABC"/>
<path d="M636.846 504.26C635.657 509.113 630.114 513.998 628.611 518.037L539.245 504.26C519.862 556.364 489.771 606.12 448.971 643.977C455.171 636.963 460.65 629.291 466.381 621.901C472.111 614.511 477.465 606.871 482.882 598.918C503.736 568.169 523.369 534.852 531.918 498.717C522.43 518.82 513.569 540.019 503.048 559.84C497.129 571.018 487.016 583.669 482.882 595.223C476.964 600.327 472.768 608.155 468.228 614.511C465.786 613.603 465.41 612.069 462.717 613.603C490.867 575.089 512.379 532.285 529.162 487.664C548.326 487.789 567.927 488.447 586.903 491.328C593.917 492.392 633.183 501.066 636.846 504.197V504.26Z" fill="#DBB070"/>
<path d="M517.7 499.662L511.281 501.509C511.344 500.601 512.252 500.476 512.189 499.662C511.97 498.847 510.561 497.282 509.904 496.906C506.522 495.027 480.094 489.861 474.145 488.64C468.195 487.418 429.274 480.404 426.487 481.281C425.767 481.532 425.203 483.066 425.109 483.128C416.122 489.673 373.788 557.152 360.949 572.745C349.301 586.899 332.017 607.252 316.955 617.334C311.945 620.685 306.904 621.624 303.209 623.753C356.409 583.047 388.254 521.831 419.16 463.809C454.48 467.128 491.586 470.071 523.18 487.262C521.427 491.301 519.141 495.591 517.669 499.662H517.7Z" fill="#2983A6"/>
<path d="M423.301 443.577C423.614 443.639 423.927 443.514 424.209 443.577C424.021 445.957 428.624 446.896 430.158 447.24C501.582 463.272 576.294 472.791 646.936 490.452L641.425 498.718C621.823 493.802 605.008 487.007 584.122 484.001C565.961 481.371 543.604 483.125 527.29 480.338C522.468 479.524 511.289 472.823 505.277 471.132C472.368 461.895 451.106 461.801 418.666 457.354C416.318 443.514 411.245 430.394 407.676 416.898C413.281 422.91 413.97 434.308 416.85 442.168C418.228 444.735 422.017 443.358 423.269 443.545L423.301 443.577Z" fill="#103240"/>
<path d="M475.524 738.664C472.173 738.758 466.788 739.04 463.594 739.572C526.877 703.062 573.846 639.935 606.567 575.494C616.994 554.984 620.971 539.422 628.58 518.975C628.674 518.693 628.486 518.317 628.58 518.067C630.114 514.027 635.657 509.111 636.815 504.289C639.383 506.481 634.498 521.542 633.152 525.895C611.859 595.221 542.596 707.445 475.493 738.695L475.524 738.664Z" fill="#D38F2A"/>
<path d="M591.023 732.251C593.403 730.967 597.568 727.554 600.198 725.831C629.194 706.762 653.586 678.581 671.685 649.084C680.891 634.085 718.654 559.749 715.679 546.128C714.834 545.22 713.863 544.625 712.923 543.842C714.207 541.964 715.46 543.623 713.832 540.617C707.412 528.781 657.907 516.35 645.539 519.011C644.756 519.168 644.286 520.828 644.161 520.859C642.971 521.235 643.754 524.992 639.589 519.951C641.061 515.724 641.719 506.737 646.478 506.173C648.326 505.954 670.401 510.745 673.971 511.684C690.66 516.037 706.379 523.74 721.19 532.382C717.84 568.705 701.526 606.562 683.615 638.093C662.823 674.698 631.01 716.532 591.023 732.313V732.251Z" fill="#103240"/>
<path d="M663.44 385.683C660.277 386.466 664.285 389.942 666.195 391.194C583.405 359.381 489.968 352.054 403.138 370.966L423.303 443.58C422.082 443.392 418.262 444.77 416.884 442.203C414.003 434.343 413.346 422.945 407.709 416.933C403.545 401.152 399.787 385.151 396.719 369.119C456.244 339.685 602.036 360.665 663.44 385.652V385.683Z" fill="#2983A6"/>
<path d="M381.107 370.965C386.525 403.78 396.795 434.467 411.355 464.276C391.472 502.415 370.179 540.053 343.971 574.121C343.219 574.059 337.176 563.694 336.174 562.16C337.99 560.719 339.399 558.277 340.745 556.649C340.808 556.586 341.184 556.304 341.654 555.741C342.029 555.302 343.125 554.332 343.501 553.893L347.165 558.027L400.333 465.185C392.192 434.028 380.043 403.968 375.596 371.873L381.107 370.965Z" fill="#D38F2A"/>
<path d="M517.718 499.658C488.472 581.885 431.389 658.413 355.926 702.814C331.659 685.467 310.773 663.58 294.052 638.937C293.614 637.434 295.43 637.121 295.9 636.651C300.252 645.794 349.162 697.053 354.548 695.487C399.92 672.598 439.906 629.418 468.213 587.49C479.579 570.644 509.953 520.137 511.299 501.537L517.718 499.689V499.658Z" fill="#103240"/>
<path d="M561.688 354.429C571.551 351.11 583.857 356.308 592.844 352.582C641.597 361.631 691.604 382.58 729.868 414.174C731.966 414.331 730.4 412.921 730.337 411.418C729.711 400.49 704.911 359.22 697.334 349.357C692.512 343.063 685.811 338.241 681.74 331.446C684.715 333.513 687.408 335.924 690.445 337.865C670.969 317.637 642.975 302.732 616.672 292.838L618.52 290.082C632.11 295.217 648.893 302.607 661.136 310.31C700.121 334.828 726.079 382.58 739.512 425.666C689.975 384.051 625.753 361.287 561.688 354.429Z" fill="#DBB070"/>
<path d="M408.644 281.819H405.889C410.648 280.034 416.785 276.057 421.921 274.46C478.284 257.113 546.576 258.647 602.501 276.308C566.429 258.334 510.88 256.142 470.956 260.683C470.956 259.712 473.743 258.021 474.15 257.927C489.807 254.827 508.25 250.944 524.094 251.508C562.295 252.823 610.329 272.425 640.953 294.72C571.063 260.839 481.947 255.767 408.582 281.85L408.644 281.819Z" fill="#2983A6"/>
<path d="M341.724 555.736C341.255 556.331 340.847 556.581 340.816 556.644C320.212 528.65 306.529 496.586 293.158 464.71C269.768 380.448 291.561 344.438 371.064 285.445C364.645 295.309 351.369 301.947 342.194 310.276C321.121 329.314 290.184 363.758 287.647 392.534C282.418 452.342 312.572 506.45 341.724 555.705V555.736Z" fill="#DBB070"/>
<path d="M253.738 535.512C257.715 538.236 259.437 544.436 261.974 548.381C259.375 558.151 286.116 623.751 290.844 623.751L334.368 579.162C335.026 575.31 330.548 572.147 328.857 569.517C329.546 566.48 327.135 566.073 327.01 565.854C305.467 514.25 283.078 488.637 278.444 427.953L280.291 425.197C284.362 481.153 310.915 533.101 340.787 579.162C325.319 597.636 308.191 614.952 288.088 628.354C270.522 600.423 258.373 568.421 253.707 535.512H253.738Z" fill="#DBB070"/>
<path d="M745.934 453.691C747.906 464.463 752.165 498.468 748.689 507.455C747.593 510.242 728.054 525.992 725.33 526.305C722.386 526.619 712.523 518.728 708.828 517.099C685.156 506.704 665.679 504.762 641.443 498.719L646.954 490.452C668.811 495.901 691.136 501.13 711.584 510.68C713.869 511.745 724.516 519.855 725.33 519.886C728.68 519.98 743.241 506.735 744.117 502.884C745.495 496.746 744.086 468.534 743.209 461.05C742.928 458.764 742.677 455.915 742.301 453.691H745.965H745.934Z" fill="#103240"/>
<path d="M644.205 520.791C645.363 522.231 645.332 523.014 646.96 524.455C646.083 524.361 645.05 524.642 644.205 524.455C644.111 524.455 643.735 522.357 642.357 523.985C641.355 525.206 634.247 549.599 632.275 554.327C603.561 623.089 557.657 696.799 492.965 735.877C492.37 735.94 491.712 735.752 491.117 735.877C566.111 686.09 610.387 602.987 639.602 519.852C643.766 524.893 642.983 521.135 644.173 520.76L644.205 520.791Z" fill="#69A8C1"/>
<path d="M458.103 254.229C464.115 256.452 455.973 258.33 457.194 263.434C434.493 267.599 411.447 275.427 391.187 285.948C391.438 286.668 404.12 282.441 405.842 281.815H408.597C401.583 284.32 394.632 288.516 387.962 291.929C384.455 291.397 393.912 273.799 395.289 272.64C403.681 265.47 445.953 256.139 458.071 254.26L458.103 254.229Z" fill="#2983A6"/>
<path d="M618.516 290.079L616.669 292.834C560.651 271.761 489.821 269.006 431.517 282.72L429.67 279.965C491.199 264.277 559.179 267.69 618.485 290.079H618.516Z" fill="#B4D4E0"/>
<path d="M396.71 369.117C399.81 385.118 403.536 401.119 407.701 416.932C411.27 430.396 416.343 443.547 418.691 457.388C418.566 457.388 418.441 459.517 415.936 456.918C403.536 430.302 393.234 402.434 388.443 373.282C390.541 370.558 394.236 370.37 396.679 369.149L396.71 369.117Z" fill="#EEDABC"/>
<path d="M468.197 614.578C465.41 618.523 462.059 622.124 459.961 626.539C433.815 651.464 421.76 669.187 390.291 691.795L388.443 688.131C406.323 674.886 422.668 659.731 437.949 643.542C442.614 638.595 459.648 615.361 462.686 613.67C465.378 612.167 465.754 613.67 468.197 614.578Z" fill="#D38F2A"/>
<path d="M600.217 725.799C597.586 727.521 593.422 730.965 591.042 732.218C566.023 745.651 524.784 750.411 496.634 749.69C496.415 747.561 496.572 746.528 498.92 746.027C506.905 744.273 518.96 745.244 527.321 744.179C537.247 742.927 550.68 740.923 560.324 738.668C573.914 735.474 586.533 728.492 600.185 725.799H600.217Z" fill="black"/>
<path d="M340.789 556.647C339.411 558.275 338.002 560.717 336.217 562.158C316.302 531.816 302.212 499.689 293.131 464.713C306.501 496.589 320.185 528.653 340.789 556.647Z" fill="#D38F2A"/>
<path d="M372.895 707.42C378.845 711.647 385.232 715.968 391.683 719.381C406.932 727.429 442.065 742.772 458.128 741.457C460.164 741.3 461.416 739.985 463.639 739.609C466.833 739.077 472.219 738.795 475.569 738.701C472.814 739.985 462.261 745.903 460.445 746.06C443.317 747.625 382.978 722.387 368.324 711.115C367.948 707.858 371.643 708.234 372.895 707.451V707.42Z" fill="#D38F2A"/>
<path d="M745.931 453.693H742.267C740.138 441.669 736.694 432.525 727.613 426.106C721.319 420.063 713.554 414.865 706.07 410.481C694.328 403.592 676.323 397.925 666.209 391.193C664.299 389.909 660.291 386.433 663.453 385.682C686.061 394.888 716.56 410.513 734.502 427.046C745.085 436.815 743.363 439.665 745.962 453.693H745.931Z" fill="#103240"/>
<path d="M466.378 621.938C460.647 629.327 455.168 636.999 448.968 644.013C437.852 656.538 425.233 669.251 412.301 679.866C400.057 689.917 386.28 699.06 372.878 707.452C371.626 708.235 367.899 707.891 368.306 711.116C367.398 710.427 367.367 710.02 366.459 709.268C374.131 703.131 382.334 697.526 390.288 691.796C421.757 669.157 433.812 651.465 459.958 626.54C461.368 625.194 464.53 622.877 466.378 621.938Z" fill="black"/>
<path d="M524.116 251.471C508.272 250.939 489.829 254.821 474.173 257.89C473.734 257.984 470.947 259.675 470.979 260.646C466.47 261.147 461.71 262.587 457.232 263.401C456.011 258.329 464.152 256.418 458.14 254.195C479.965 250.782 501.947 248.747 524.147 251.44L524.116 251.471Z" fill="#2983A6"/>
<path d="M736.774 574.117C739.842 558.085 743.976 542.272 745.009 525.864C742.16 529.027 728.789 538.358 727.599 541.019C727.349 541.583 727.818 543.023 727.599 543.775L724.844 541.927C725.345 539.861 725.595 534.475 725.752 534.099C726.816 531.72 745.761 519.602 748.673 515.719L736.743 574.085L736.774 574.117Z" fill="#D38F2A"/>
<path d="M390.299 691.789C382.346 697.519 374.11 703.124 366.47 709.261C365.405 708.384 361.366 706.443 362.337 704.658C371.261 699.554 380.185 694.231 388.452 688.125L390.299 691.789Z" fill="#D38F2A"/>
<path d="M316.956 617.328C316.737 620.929 288.086 642.942 290.372 632.483C294.631 629.634 298.764 626.315 303.21 623.747C306.905 621.587 311.946 620.679 316.956 617.328Z" fill="#103240"/>
<path d="M491.104 735.913C491.668 735.788 492.357 735.976 492.952 735.913C487.66 739.107 484.153 741.55 478.298 744.18C476.513 744.963 473.507 744.681 473.726 747.843C472.16 747.593 468.528 748.845 468.685 745.996C476.795 745.244 483.715 737.354 491.136 735.882L491.104 735.913Z" fill="#2983A6"/>
<path d="M681.781 331.444C685.852 338.239 692.521 343.092 697.375 349.355C704.953 359.218 729.752 400.488 730.378 411.417C709.963 396.167 686.854 380.323 663.463 370.053C659.393 346.756 648.997 325.589 636.879 305.705C653.13 313.314 667.064 321.174 681.781 331.444Z" fill="#DBB070"/>
<path d="M663.432 370.051C686.823 380.321 709.932 396.165 730.348 411.415C730.442 412.918 731.976 414.327 729.878 414.17C691.614 382.576 641.608 361.628 592.854 352.578C528.632 340.68 456.362 340.899 393.486 358.997C417.816 346.003 452.636 342.809 480.567 341.525C542.315 338.676 606.6 345.063 663.432 370.019V370.051Z" fill="black"/>
<path d="M616.679 292.838C643.013 302.732 670.975 317.637 690.452 337.865C687.414 335.892 684.722 333.513 681.747 331.446C666.999 321.175 653.096 313.316 636.845 305.707C562.602 270.887 473.079 266.973 396.238 296.501C405.977 288.673 419.597 285.51 431.528 282.724C489.832 269.009 560.661 271.764 616.679 292.838Z" fill="black"/>
<path d="M380.212 286.385C371.225 315.286 371.444 341.871 375.64 371.868C380.118 403.964 392.236 434.024 400.377 465.18L347.208 558.022L343.545 553.888C353.941 540.675 394.209 476.985 395.806 463.332C397.09 452.185 377.926 404.997 374.732 388.871C369.284 361.504 365.339 310.026 379.304 285.445L380.212 286.353V286.385Z" fill="black"/>
<path d="M380.197 286.39L379.289 285.482C379.727 284.73 379.602 281.505 381.575 281.818C382.984 282.351 380.291 286.139 380.197 286.421V286.39Z" fill="#D38F2A"/>
<path d="M512.188 499.658C512.251 500.472 511.343 500.598 511.28 501.506C509.934 520.105 479.561 570.613 468.194 587.459C439.888 629.418 399.901 672.567 354.529 695.456C397.709 665.96 436.819 628.823 464.531 584.234C473.142 575.466 483.162 557.367 489.268 546.095C497.471 530.971 503.358 514.438 512.188 499.658Z" fill="black"/>
<path d="M712.031 543.781C698.347 579.571 681.376 614.015 652.912 640.287C628.582 662.769 591.696 684.625 558.035 685.314C559.851 683.247 561.793 680.993 563.546 678.895C571.093 674.167 578.921 663.865 584.62 656.381C613.615 618.274 637.006 572.933 648.779 526.309C664.154 533.229 697.376 533.354 712.031 543.781Z" fill="#2983A6"/>
<path d="M644.207 524.489C629.302 578.378 599.336 635.899 563.546 678.923C561.792 681.021 559.851 683.306 558.035 685.342C545.447 699.683 528.162 716.623 512.662 727.614C503.676 734.002 488.677 745.024 478.281 744.147C484.137 741.517 487.644 739.074 492.936 735.88C557.659 696.802 603.532 623.092 632.245 554.33C634.218 549.602 641.326 525.24 642.328 523.988C643.675 522.328 644.082 524.426 644.176 524.457L644.207 524.489Z" fill="black"/>
<path d="M712.932 543.777C712.745 543.62 712.212 543.933 712.024 543.777C697.37 533.349 664.147 533.224 648.773 526.304C647.301 525.647 647.364 524.832 646.925 524.457C645.297 523.016 645.328 522.233 644.17 520.793C644.264 520.762 644.765 519.133 645.548 518.946C657.885 516.284 707.421 528.715 713.841 540.551C715.469 543.557 714.185 541.898 712.932 543.777Z" fill="#103240"/>
<path d="M328.874 569.519C330.565 572.149 335.042 575.312 334.385 579.163L290.86 623.752C286.132 623.752 259.391 558.152 261.99 548.383C273.325 566.043 299.001 590.749 321.108 577.785C322.048 577.222 328.717 570.302 328.905 569.519H328.874Z" fill="#DBB070"/>
<path d="M278.492 427.952C283.126 488.636 305.514 514.218 327.057 565.853H326.149C295.87 518.226 267.313 452.439 275.736 394.416C275.893 393.352 276.55 391.786 278.585 392.381C278.304 404.561 277.552 415.803 278.492 427.952Z" fill="black"/>
<path d="M328.888 569.515C328.325 568.638 327.041 567.292 326.133 565.852H327.041C327.135 566.102 329.546 566.478 328.888 569.515Z" fill="#D38F2A"/>
<path d="M628.614 518.037C628.52 518.319 628.708 518.695 628.614 518.945C626.767 520.511 626.548 523.204 625.859 525.365C624.199 525.145 625.765 520.856 623.103 523.987C609.733 539.706 594.797 590.902 579.109 613.165C548.642 656.377 464.066 692.574 412.275 679.798C425.208 669.183 437.826 656.47 448.942 643.945C489.743 606.057 519.866 556.333 539.217 504.229L628.583 518.006L628.614 518.037Z" fill="#D38F2A"/>
<path d="M482.874 598.954C479.18 601.021 482.342 596.731 482.874 595.291C487.008 583.705 497.122 571.086 503.04 559.907C513.561 540.055 522.422 518.888 531.91 498.785C523.362 534.92 503.729 568.237 482.874 598.986V598.954Z" fill="#D38F2A"/>
<path d="M482.892 595.254C482.359 596.726 479.197 600.984 482.892 598.917C477.506 606.871 472.277 614.292 466.39 621.901C464.542 622.84 461.38 625.157 459.971 626.504C462.069 622.089 465.419 618.488 468.206 614.542C472.746 608.155 476.973 600.358 482.86 595.254H482.892Z" fill="#D38F2A"/>
<path d="M727.576 543.781C727.795 543.029 727.326 541.589 727.576 541.025C729.016 543.562 728.766 548.76 728.484 551.609C725.008 586.335 694.76 645.954 673.499 673.854C672.904 674.605 668.489 681.431 667.08 679.365C690.157 647.144 712.108 607.377 723.004 569.05C725.259 561.128 725.384 551.202 727.576 543.781Z" fill="black"/>
<path d="M667.102 395.799C669.2 427.644 659.932 457.641 648.784 486.793C605.041 475.802 561.986 472.546 519.087 463.81C486.867 457.265 457.746 449.562 424.21 443.582C423.928 443.519 423.584 443.644 423.302 443.582L403.137 370.968C417.634 371.844 432.884 367.555 447.601 366.365C522.97 360.353 596.962 367.899 667.133 395.767L667.102 395.799Z" fill="#2983A6"/>
<path d="M648.769 486.79C675.197 493.428 719.223 520.2 734.942 489.075L743.177 461.051C744.053 468.534 745.494 496.716 744.085 502.884C743.208 506.736 728.648 520.012 725.297 519.887C724.483 519.887 713.837 511.746 711.551 510.681C691.104 501.131 668.778 495.933 646.922 490.453C576.28 472.793 501.569 463.274 430.144 447.242C428.61 446.897 424.007 445.927 424.195 443.578C457.731 449.559 486.852 457.23 519.072 463.806C561.971 472.542 605.025 475.768 648.769 486.79Z" fill="black"/>
<path d="M463.644 739.578C461.452 739.954 460.199 741.237 458.133 741.425C513.149 707.075 554.607 658.635 587.36 603.086C599.979 581.668 618.516 548.508 625.843 525.4C626.532 523.239 626.751 520.515 628.599 518.98C620.99 539.428 617.013 555.021 606.586 575.5C573.833 639.941 526.864 703.067 463.613 739.578H463.644Z" fill="black"/>
<path d="M666.19 391.196C676.336 397.959 694.309 403.627 706.051 410.484C713.535 414.868 721.3 420.066 727.594 426.109C710.466 414.054 686.575 403.533 667.098 395.767C596.958 367.868 522.935 360.353 447.565 366.365C432.849 367.523 417.599 371.844 403.102 370.968C489.931 352.024 583.368 359.382 666.159 391.196H666.19Z" fill="black"/>
<path d="M405.895 281.815C404.172 282.472 391.491 286.699 391.24 285.948C411.5 275.427 434.514 267.599 457.247 263.434C461.725 262.62 466.484 261.18 470.993 260.679C510.917 256.138 566.434 258.33 602.538 276.304C546.613 258.643 478.352 257.109 421.958 274.456C416.823 276.053 410.685 280.03 405.926 281.815H405.895Z" fill="black"/>
<path d="M727.589 426.135C736.67 432.523 740.114 441.697 742.244 453.721C742.619 455.913 742.901 458.794 743.152 461.08L734.916 489.105C719.198 520.229 675.172 493.457 648.744 486.819C659.923 457.667 669.191 427.669 667.062 395.824C686.538 403.558 710.43 414.111 727.558 426.166L727.589 426.135Z" fill="#103240"/>
<path d="M646.927 524.494C647.334 524.87 647.302 525.684 648.774 526.342C637 572.966 613.61 618.307 584.614 656.414C578.915 663.898 571.087 674.2 563.541 678.928C599.331 635.905 629.298 578.383 644.202 524.494C645.048 524.682 646.081 524.4 646.958 524.494H646.927Z" fill="#2983A6"/>
<path d="M625.848 525.4C618.489 548.509 599.983 581.669 587.365 603.087C554.58 658.667 513.122 707.076 458.137 741.426C442.074 742.741 406.941 727.398 391.692 719.351C385.241 715.969 378.854 711.648 372.904 707.389C386.306 698.998 400.084 689.854 412.327 679.803C464.118 692.547 548.662 656.381 579.161 613.17C594.848 590.938 609.784 539.742 623.155 523.991C625.816 520.86 624.251 525.15 625.91 525.369L625.848 525.4Z" fill="#604216"/>
<path d="M723.018 569.085C725.272 561.163 725.397 551.237 727.589 543.816L724.834 541.969C723.863 545.945 723.988 551.456 722.986 555.308C716.098 582.205 705.827 608.007 692.738 632.274C693.991 632.024 695.462 631.711 697.059 631.304C707.894 611.076 717.068 589.877 722.986 569.085H723.018Z" fill="#604216"/>
<path d="M727.586 541.025C729.026 543.561 728.776 548.759 728.494 551.608C726.365 572.901 714.184 603.525 700.156 630.485C706.262 628.763 713.527 626.07 718.349 622.062C726.146 608.284 731.782 594.569 733.974 582.389C734.256 580.792 735.195 580.134 735.884 578.255C735.884 578.099 736.448 575.656 736.729 574.091C739.798 558.059 743.931 542.246 744.965 525.838C742.115 529 728.745 538.332 727.555 540.993L727.586 541.025Z" fill="#604216"/>
<path d="M673.508 673.847C672.913 674.599 668.498 681.425 667.089 679.358C676.827 665.737 686.378 650.77 694.989 635.145C693.611 635.427 692.17 635.677 690.699 635.896C677.892 658.974 662.58 680.611 645.076 700.494C668.185 687.813 695.208 659.475 713.557 630.072C710.113 631.293 704.633 633.047 697.995 634.519C689.759 649.924 681.054 663.89 673.477 673.847H673.508Z" fill="#103240"/>
<path d="M688.748 632.958L690.689 635.933C691.378 634.712 692.067 633.491 692.756 632.238C690.314 632.739 688.748 632.958 688.748 632.958Z" fill="black"/>
<path d="M698.016 634.555C698.736 633.209 699.456 631.862 700.145 630.484C699.08 630.798 698.047 631.048 697.076 631.298C696.388 632.614 695.667 633.897 694.979 635.181C696.012 634.993 697.045 634.774 698.016 634.555Z" fill="black"/>
<path d="M717.5 628.636L718.596 621.904C718.596 621.904 718.439 621.998 718.377 622.061C716.874 624.754 715.277 627.415 713.586 630.108C716.06 629.231 717.5 628.636 717.5 628.636Z" fill="black"/>
<path d="M698.047 634.562C704.654 633.09 710.165 631.337 713.609 630.116C715.269 627.454 716.866 624.761 718.4 622.068C713.547 626.076 706.313 628.769 700.207 630.491C699.487 631.869 698.798 633.216 698.078 634.562H698.047Z" fill="black"/>
<path d="M697.073 631.301C695.445 631.708 693.973 632.021 692.752 632.271C692.095 633.524 691.374 634.714 690.686 635.966C692.157 635.747 693.566 635.465 694.975 635.215C695.696 633.931 696.384 632.616 697.073 631.332V631.301Z" fill="black"/>
</svg>
